<svg width="100" height="101" viewBox="0 0 100 101" fill="none" xmlns="http://www.w3.org/2000/svg">
<rect y="0.5" width="100" height="100" rx="32" fill="#243690"/>
<g clip-path="url(#clip0_1149_305)">
<g clip-path="url(#clip1_1149_305)">
<path fill-rule="evenodd" clip-rule="evenodd" d="M58 56C60.612 56 62.836 57.67 63.66 60H66C66.5304 60 67.0391 60.2107 67.4142 60.5858C67.7893 60.9609 68 61.4696 68 62C68 62.5304 67.7893 63.0391 67.4142 63.4142C67.0391 63.7893 66.5304 64 66 64H63.66C63.2468 65.1711 62.4805 66.1851 61.4668 66.9024C60.4531 67.6197 59.2418 68.0049 58 68.0049C56.7582 68.0049 55.5469 67.6197 54.5332 66.9024C53.5195 66.1851 52.7532 65.1711 52.34 64H34C33.4696 64 32.9609 63.7893 32.5858 63.4142C32.2107 63.0391 32 62.5304 32 62C32 61.4696 32.2107 60.9609 32.5858 60.5858C32.9609 60.2107 33.4696 60 34 60H52.34C52.754 58.8299 53.5206 57.8168 54.5343 57.1005C55.5479 56.3841 56.7588 55.9996 58 56ZM58 60C57.4696 60 56.9609 60.2107 56.5858 60.5858C56.2107 60.9609 56 61.4696 56 62C56 62.5304 56.2107 63.0391 56.5858 63.4142C56.9609 63.7893 57.4696 64 58 64C58.5304 64 59.0391 63.7893 59.4142 63.4142C59.7893 63.0391 60 62.5304 60 62C60 61.4696 59.7893 60.9609 59.4142 60.5858C59.0391 60.2107 58.5304 60 58 60ZM42 44C43.178 43.9998 44.3299 44.3464 45.3123 44.9966C46.2946 45.6467 47.0638 46.5716 47.524 47.656L47.658 48H66C66.5098 48.0006 67.0001 48.1958 67.3707 48.5457C67.7414 48.8956 67.9645 49.3739 67.9943 49.8828C68.0242 50.3917 67.8587 50.8928 67.5315 51.2837C67.2043 51.6746 66.7402 51.9258 66.234 51.986L66 52H47.66C47.2568 53.1406 46.5183 54.1327 45.5415 54.8463C44.5646 55.5598 43.3949 55.9615 42.1857 55.9987C40.9765 56.0359 39.7843 55.7069 38.7655 55.0547C37.7466 54.4025 36.9485 53.4576 36.476 52.344L36.34 52H34C33.4902 51.9994 32.9999 51.8042 32.6293 51.4543C32.2586 51.1044 32.0355 50.6261 32.0057 50.1172C31.9758 49.6083 32.1413 49.1072 32.4685 48.7163C32.7957 48.3254 33.2598 48.0742 33.766 48.014L34 48H36.34C36.754 46.8299 37.5206 45.8168 38.5343 45.1005C39.5479 44.3841 40.7588 43.9996 42 44ZM42 48C41.4696 48 40.9609 48.2107 40.5858 48.5858C40.2107 48.9609 40 49.4696 40 50C40 50.5304 40.2107 51.0391 40.5858 51.4142C40.9609 51.7893 41.4696 52 42 52C42.5304 52 43.0391 51.7893 43.4142 51.4142C43.7893 51.0391 44 50.5304 44 50C44 49.4696 43.7893 48.9609 43.4142 48.5858C43.0391 48.2107 42.5304 48 42 48ZM58 32C60.612 32 62.836 33.67 63.66 36H66C66.5304 36 67.0391 36.2107 67.4142 36.5858C67.7893 36.9609 68 37.4696 68 38C68 38.5304 67.7893 39.0391 67.4142 39.4142C67.0391 39.7893 66.5304 40 66 40H63.66C63.2468 41.1711 62.4805 42.1851 61.4668 42.9024C60.4531 43.6197 59.2418 44.0049 58 44.0049C56.7582 44.0049 55.5469 43.6197 54.5332 42.9024C53.5195 42.1851 52.7532 41.1711 52.34 40H34C33.4696 40 32.9609 39.7893 32.5858 39.4142C32.2107 39.0391 32 38.5304 32 38C32 37.4696 32.2107 36.9609 32.5858 36.5858C32.9609 36.2107 33.4696 36 34 36H52.34C52.754 34.8299 53.5206 33.8168 54.5343 33.1005C55.5479 32.3841 56.7588 31.9996 58 32ZM58 36C57.4696 36 56.9609 36.2107 56.5858 36.5858C56.2107 36.9609 56 37.4696 56 38C56 38.5304 56.2107 39.0391 56.5858 39.4142C56.9609 39.7893 57.4696 40 58 40C58.5304 40 59.0391 39.7893 59.4142 39.4142C59.7893 39.0391 60 38.5304 60 38C60 37.4696 59.7893 36.9609 59.4142 36.5858C59.0391 36.2107 58.5304 36 58 36Z" fill="#09244B"/>
<g clip-path="url(#clip2_1149_305)">
<path fill-rule="evenodd" clip-rule="evenodd" d="M58 56C60.612 56 62.836 57.67 63.66 60H66C66.5304 60 67.0391 60.2107 67.4142 60.5858C67.7893 60.9609 68 61.4696 68 62C68 62.5304 67.7893 63.0391 67.4142 63.4142C67.0391 63.7893 66.5304 64 66 64H63.66C63.2468 65.1711 62.4805 66.1851 61.4668 66.9024C60.4531 67.6197 59.2418 68.0049 58 68.0049C56.7582 68.0049 55.5469 67.6197 54.5332 66.9024C53.5195 66.1851 52.7532 65.1711 52.34 64H34C33.4696 64 32.9609 63.7893 32.5858 63.4142C32.2107 63.0391 32 62.5304 32 62C32 61.4696 32.2107 60.9609 32.5858 60.5858C32.9609 60.2107 33.4696 60 34 60H52.34C52.754 58.8299 53.5206 57.8168 54.5343 57.1005C55.5479 56.3841 56.7588 55.9996 58 56ZM58 60C57.4696 60 56.9609 60.2107 56.5858 60.5858C56.2107 60.9609 56 61.4696 56 62C56 62.5304 56.2107 63.0391 56.5858 63.4142C56.9609 63.7893 57.4696 64 58 64C58.5304 64 59.0391 63.7893 59.4142 63.4142C59.7893 63.0391 60 62.5304 60 62C60 61.4696 59.7893 60.9609 59.4142 60.5858C59.0391 60.2107 58.5304 60 58 60ZM42 44C43.178 43.9998 44.3299 44.3464 45.3123 44.9966C46.2946 45.6467 47.0638 46.5716 47.524 47.656L47.658 48H66C66.5098 48.0006 67.0001 48.1958 67.3707 48.5457C67.7414 48.8956 67.9645 49.3739 67.9943 49.8828C68.0242 50.3917 67.8587 50.8928 67.5315 51.2837C67.2043 51.6746 66.7402 51.9258 66.234 51.986L66 52H47.66C47.2568 53.1406 46.5183 54.1327 45.5415 54.8463C44.5646 55.5598 43.3949 55.9615 42.1857 55.9987C40.9765 56.0359 39.7843 55.7069 38.7655 55.0547C37.7466 54.4025 36.9485 53.4576 36.476 52.344L36.34 52H34C33.4902 51.9994 32.9999 51.8042 32.6293 51.4543C32.2586 51.1044 32.0355 50.6261 32.0057 50.1172C31.9758 49.6083 32.1413 49.1072 32.4685 48.7163C32.7957 48.3254 33.2598 48.0742 33.766 48.014L34 48H36.34C36.754 46.8299 37.5206 45.8168 38.5343 45.1005C39.5479 44.3841 40.7588 43.9996 42 44ZM42 48C41.4696 48 40.9609 48.2107 40.5858 48.5858C40.2107 48.9609 40 49.4696 40 50C40 50.5304 40.2107 51.0391 40.5858 51.4142C40.9609 51.7893 41.4696 52 42 52C42.5304 52 43.0391 51.7893 43.4142 51.4142C43.7893 51.0391 44 50.5304 44 50C44 49.4696 43.7893 48.9609 43.4142 48.5858C43.0391 48.2107 42.5304 48 42 48ZM58 32C60.612 32 62.836 33.67 63.66 36H66C66.5304 36 67.0391 36.2107 67.4142 36.5858C67.7893 36.9609 68 37.4696 68 38C68 38.5304 67.7893 39.0391 67.4142 39.4142C67.0391 39.7893 66.5304 40 66 40H63.66C63.2468 41.1711 62.4805 42.1851 61.4668 42.9024C60.4531 43.6197 59.2418 44.0049 58 44.0049C56.7582 44.0049 55.5469 43.6197 54.5332 42.9024C53.5195 42.1851 52.7532 41.1711 52.34 40H34C33.4696 40 32.9609 39.7893 32.5858 39.4142C32.2107 39.0391 32 38.5304 32 38C32 37.4696 32.2107 36.9609 32.5858 36.5858C32.9609 36.2107 33.4696 36 34 36H52.34C52.754 34.8299 53.5206 33.8168 54.5343 33.1005C55.5479 32.3841 56.7588 31.9996 58 32ZM58 36C57.4696 36 56.9609 36.2107 56.5858 36.5858C56.2107 36.9609 56 37.4696 56 38C56 38.5304 56.2107 39.0391 56.5858 39.4142C56.9609 39.7893 57.4696 40 58 40C58.5304 40 59.0391 39.7893 59.4142 39.4142C59.7893 39.0391 60 38.5304 60 38C60 37.4696 59.7893 36.9609 59.4142 36.5858C59.0391 36.2107 58.5304 36 58 36Z" fill="white"/>
</g>
</g>
</g>
<defs>
<clipPath id="clip0_1149_305">
<rect width="48" height="48" fill="white" transform="translate(26 26.5)"/>
</clipPath>
<clipPath id="clip1_1149_305">
<rect width="48" height="48" fill="white" transform="translate(26 26)"/>
</clipPath>
<clipPath id="clip2_1149_305">
<rect width="48" height="48" fill="white" transform="translate(26 26)"/>
</clipPath>
</defs>
</svg>
