<svg width="100" height="100" viewBox="0 0 100 100" fill="none" xmlns="http://www.w3.org/2000/svg">
<rect width="100" height="100" rx="32" fill="#EF9595"/>
<g clip-path="url(#clip0_1149_321)">
<path d="M51.6451 39.5667C52.2855 39.2034 52.7876 38.6384 53.0731 37.9597C53.3585 37.2811 53.4113 36.527 53.2231 35.8152C53.0349 35.1034 52.6163 34.474 52.0327 34.0251C51.4491 33.5763 50.7334 33.3332 49.9971 33.334C49.2609 33.3347 48.5456 33.5792 47.9629 34.0293C47.3802 34.4793 46.9629 35.1096 46.7762 35.8218C46.5894 36.5339 46.6437 37.2879 46.9305 37.966C47.2174 38.644 47.7206 39.2081 48.3618 39.57L48.3451 39.6C47.2534 41.8784 45.7368 45.1417 43.3951 46.3667C41.4718 47.3717 38.7118 46.8667 36.6618 46.49C36.6289 46.0239 36.466 45.5763 36.1916 45.198C35.9172 44.8197 35.5423 44.526 35.1094 44.35C34.6765 44.174 34.2029 44.1229 33.7424 44.2024C33.282 44.282 32.853 44.489 32.5042 44.8C32.1554 45.111 31.9008 45.5135 31.7692 45.9619C31.6375 46.4103 31.6343 46.8866 31.7597 47.3368C31.885 47.7869 32.1341 48.193 32.4786 48.5087C32.823 48.8245 33.2491 49.0375 33.7084 49.1234L38.6218 61.8067C38.9861 62.747 39.6263 63.5551 40.4583 64.125C41.2902 64.6949 42.275 64.9999 43.2834 65H56.7168C57.7252 64.9999 58.71 64.6949 59.5419 64.125C60.3739 63.5551 61.0141 62.747 61.3784 61.8067L66.2901 49.1234C66.7466 49.0384 67.1703 48.828 67.514 48.5158C67.8576 48.2036 68.1074 47.8018 68.2356 47.3555C68.3637 46.9093 68.3651 46.4362 68.2395 45.9892C68.1138 45.5422 67.8662 45.1391 67.5244 44.8249C67.1826 44.5107 66.76 44.2979 66.304 44.2104C65.8481 44.1229 65.3767 44.164 64.9428 44.3293C64.509 44.4945 64.1297 44.7774 63.8475 45.146C63.5653 45.5147 63.3913 45.9547 63.3451 46.4167C61.2468 46.6884 58.5418 47.035 56.6051 46.0234C54.3101 44.8234 52.7718 41.785 51.6451 39.5667Z" fill="white"/>
</g>
<defs>
<clipPath id="clip0_1149_321">
<rect width="40" height="40" fill="white" transform="translate(30 30)"/>
</clipPath>
</defs>
</svg>
