<svg width="100" height="100" viewBox="0 0 100 100" fill="none" xmlns="http://www.w3.org/2000/svg">
<rect width="100" height="100" rx="32" fill="#E99131"/>
<path fill-rule="evenodd" clip-rule="evenodd" d="M46.332 34.6668C45.6754 34.6668 45.0252 34.7962 44.4186 35.0474C43.812 35.2987 43.2608 35.667 42.7965 36.1313C42.3322 36.5956 41.9639 37.1468 41.7126 37.7534C41.4614 38.36 41.332 39.0102 41.332 39.6668C41.332 40.3234 41.4614 40.9736 41.7126 41.5802C41.9639 42.1869 42.3322 42.7381 42.7965 43.2024C43.2608 43.6667 43.812 44.035 44.4186 44.2862C45.0252 44.5375 45.6754 44.6668 46.332 44.6668C47.6581 44.6668 48.9299 44.14 49.8676 43.2024C50.8052 42.2647 51.332 40.9929 51.332 39.6668C51.332 38.3407 50.8052 37.069 49.8676 36.1313C48.9299 35.1936 47.6581 34.6668 46.332 34.6668ZM37.9987 39.6668C37.9987 37.4567 38.8767 35.3371 40.4395 33.7743C42.0023 32.2115 44.1219 31.3335 46.332 31.3335C48.5422 31.3335 50.6618 32.2115 52.2246 33.7743C53.7874 35.3371 54.6654 37.4567 54.6654 39.6668C54.6654 41.877 53.7874 43.9966 52.2246 45.5594C50.6618 47.1222 48.5422 48.0002 46.332 48.0002C44.1219 48.0002 42.0023 47.1222 40.4395 45.5594C38.8767 43.9966 37.9987 41.877 37.9987 39.6668ZM35.3537 57.3352C34.8154 58.0185 34.6654 58.5352 34.6654 58.8335C34.6654 59.0368 34.727 59.2518 35.0904 59.5435C35.5054 59.8768 36.227 60.2218 37.3304 60.5135C39.527 61.0968 42.6837 61.3335 46.332 61.3335C46.702 61.3335 47.067 61.3302 47.4287 61.3252C47.8707 61.3192 48.297 61.4891 48.6138 61.7974C48.9306 62.1057 49.1119 62.5273 49.1179 62.9693C49.1238 63.4114 48.954 63.8377 48.6456 64.1544C48.3373 64.4712 47.9157 64.6525 47.4737 64.6585C47.097 64.6635 46.7154 64.6668 46.332 64.6668C42.617 64.6668 39.107 64.4335 36.477 63.7368C35.1687 63.3902 33.937 62.8935 33.0037 62.1435C32.0154 61.3502 31.332 60.2418 31.332 58.8335C31.332 57.5218 31.9287 56.2952 32.7387 55.2685C33.562 54.2268 34.7004 53.2685 36.0354 52.4518C38.707 50.8252 42.3404 49.6668 46.332 49.6668C47.077 49.6668 47.8104 49.7068 48.5254 49.7835C48.965 49.8301 49.368 50.0495 49.6459 50.3933C49.9238 50.7371 50.0537 51.1772 50.007 51.6168C49.9604 52.0564 49.741 52.4595 49.3972 52.7374C49.0534 53.0152 48.6133 53.1451 48.1737 53.0985C47.5737 53.0335 46.957 53.0002 46.332 53.0002C42.9604 53.0002 39.927 53.9835 37.772 55.2985C36.6937 55.9552 35.8787 56.6685 35.3537 57.3352ZM59.4387 51.3285C59.292 51.0767 59.0818 50.8678 58.8291 50.7226C58.5764 50.5774 58.2901 50.501 57.9987 50.501C57.7073 50.501 57.421 50.5774 57.1683 50.7226C56.9156 50.8678 56.7054 51.0767 56.5587 51.3285L55.042 53.9318L52.0987 54.5685C51.8137 54.6301 51.5499 54.7655 51.3336 54.961C51.1172 55.1565 50.956 55.4053 50.8659 55.6826C50.7758 55.9599 50.7601 56.256 50.8202 56.5413C50.8804 56.8266 51.0143 57.0912 51.2087 57.3085L53.2154 59.5552L52.912 62.5518C52.8826 62.8418 52.9298 63.1344 53.0488 63.4005C53.1679 63.6666 53.3546 63.8968 53.5904 64.0681C53.8262 64.2395 54.1028 64.346 54.3926 64.3771C54.6824 64.4081 54.9753 64.3627 55.242 64.2452L57.9987 63.0285L60.7554 64.2452C61.0221 64.3627 61.315 64.4081 61.6048 64.3771C61.8946 64.346 62.1712 64.2395 62.407 64.0681C62.6428 63.8968 62.8295 63.6666 62.9486 63.4005C63.0676 63.1344 63.1148 62.8418 63.0854 62.5518L62.782 59.5535L64.7887 57.3085C64.9831 57.0912 65.117 56.8266 65.1772 56.5413C65.2373 56.256 65.2216 55.9599 65.1315 55.6826C65.0414 55.4053 64.8802 55.1565 64.6638 54.961C64.4475 54.7655 64.1837 54.6301 63.8987 54.5685L60.9554 53.9318L59.4387 51.3285ZM57.5537 56.2435L57.9987 55.4768L58.4437 56.2435C58.5603 56.4436 58.7173 56.6171 58.9046 56.7531C59.092 56.8892 59.3057 56.9846 59.532 57.0335L60.3987 57.2202L59.807 57.8818C59.6526 58.0543 59.5358 58.257 59.4641 58.4771C59.3923 58.6972 59.3672 58.9298 59.3904 59.1602L59.4804 60.0402L58.6704 59.6835C58.4587 59.5903 58.23 59.5422 57.9987 59.5422C57.7674 59.5422 57.5387 59.5903 57.327 59.6835L56.517 60.0402L56.6054 59.1602C56.6285 58.9298 56.6034 58.6972 56.5317 58.4771C56.4599 58.257 56.3431 58.0543 56.1887 57.8818L55.6004 57.2202L56.467 57.0335C56.6931 56.9844 56.9064 56.8888 57.0935 56.7528C57.2806 56.6168 57.4373 56.4434 57.5537 56.2435Z" fill="white"/>
</svg>
